# xmcd
#
# Track frame offsets: 
#        150
#        13522
#        27155
#        43467
#        53725
#        69725
#        87462
#        101532
#        114830
#        126847
#        143042
#        159370
#        175437
#        186927
#        201350
#        213282
#        228315
#
# Disc length: 3189 seconds
#
# Revision: 0
# Processed by: cddbd v1.5.2PL0 Copyright (c) Steve Scherf et al.
# Submitted via: ExactAudioCopy v1.0b1
#
DISCID=ee0c7311
DTITLE=Various Artist - Hi Honey, I'm Home! [CD-1)
DYEAR=2001
DGENRE=Oldies
TTITLE0=Johnny Matis and Denice Williams - Too Much, Too Little, Too Lat
TTITLE0=e
TTITLE1=BJ Thomas - Raindrops Keep Falling On My Head
TTITLE2=David Soul - Don't Give Up On Us
TTITLE3=Sergio Mendes - What The World Needs Now
TTITLE4=Limah L - Never Ending Story
TTITLE5=Randy van Walmer - Just When I Needed You Most
TTITLE6=Jeanie C Riley - Harper Valley P.T.A.
TTITLE7=Tony Orlando and Dawn - Knock Three Times
TTITLE8=Connie Francis - Where The Boys Are
TTITLE9=Starbuck - Moonlight Feels Right
TTITLE10=Nina Simone - My Baby Just Cares For Me
TTITLE11=Larry Page Orchestra - Venus
TTITLE12=Hot Butter - Popcorn
TTITLE13=Chicory Tip - Son Of My Father
TTITLE14=Bucks Fizz - Making Your Mind Up
TTITLE15=Tina Charles - I Love To Love
TTITLE16=Chris Montez - Let's Dance
EXTD=
EXTT0=
EXTT1=
EXTT2=
EXTT3=
EXTT4=
EXTT5=
EXTT6=
EXTT7=
EXTT8=
EXTT9=
EXTT10=
EXTT11=
EXTT12=
EXTT13=
EXTT14=
EXTT15=
EXTT16=
PLAYORDER=
